<svg width="512" height="512" viewBox="0 0 512 512" xmlns="http://www.w3.org/2000/svg">
  <defs>
    <linearGradient id="bgGradient512" x1="0%" y1="0%" x2="100%" y2="100%">
      <stop offset="0%" style="stop-color:#667eea;stop-opacity:1" />
      <stop offset="50%" style="stop-color:#764ba2;stop-opacity:1" />
      <stop offset="100%" style="stop-color:#667eea;stop-opacity:1" />
    </linearGradient>
    <linearGradient id="tableGradient512" x1="0%" y1="0%" x2="100%" y2="100%">
      <stop offset="0%" style="stop-color:#ff6b6b;stop-opacity:1" />
      <stop offset="100%" style="stop-color:#feca57;stop-opacity:1" />
    </linearGradient>
    <linearGradient id="numberGradient512" x1="0%" y1="0%" x2="100%" y2="100%">
      <stop offset="0%" style="stop-color:#74b9ff;stop-opacity:1" />
      <stop offset="100%" style="stop-color:#0984e3;stop-opacity:1" />
    </linearGradient>
    <linearGradient id="cellGradient" x1="0%" y1="0%" x2="100%" y2="100%">
      <stop offset="0%" style="stop-color:#ffeaa7;stop-opacity:1" />
      <stop offset="100%" style="stop-color:#fab1a0;stop-opacity:1" />
    </linearGradient>
    <filter id="shadow" x="-50%" y="-50%" width="200%" height="200%">
      <feDropShadow dx="4" dy="4" stdDeviation="8" flood-color="rgba(0,0,0,0.3)"/>
    </filter>
  </defs>
  
  <!-- Fondo del icono -->
  <rect width="512" height="512" rx="64" ry="64" fill="url(#bgGradient512)"/>
  
  <!-- Sombra de la tabla -->
  <g filter="url(#shadow)">
    <!-- Contenedor principal de la tabla -->
    <rect x="64" y="100" width="384" height="280" rx="16" fill="white" opacity="0.95"/>
  </g>
  
  <!-- Tabla posicional detallada -->
  <g transform="translate(64, 100)">
    <!-- Encabezado de la tabla -->
    <rect x="0" y="0" width="384" height="40" rx="16" fill="url(#tableGradient512)"/>
    <text x="192" y="28" text-anchor="middle" font-family="Arial, sans-serif" font-size="20" font-weight="bold" fill="white">TABLA POSICIONAL</text>
    
    <!-- Fila de categorías -->
    <g transform="translate(0, 50)">
      <rect x="8" y="0" width="70" height="30" rx="4" fill="#e17055"/>
      <rect x="86" y="0" width="70" height="30" rx="4" fill="#55a3ff"/>
      <rect x="164" y="0" width="70" height="30" rx="4" fill="#00b894"/>
      <rect x="242" y="0" width="70" height="30" rx="4" fill="#fd79a8"/>
      <rect x="320" y="0" width="56" height="30" rx="4" fill="#6c5ce7"/>
      
      <text x="43" y="20" text-anchor="middle" font-family="Arial, sans-serif" font-size="10" font-weight="bold" fill="white">MIL</text>
      <text x="121" y="20" text-anchor="middle" font-family="Arial, sans-serif" font-size="10" font-weight="bold" fill="white">MILL</text>
      <text x="199" y="20" text-anchor="middle" font-family="Arial, sans-serif" font-size="10" font-weight="bold" fill="white">MIL</text>
      <text x="277" y="20" text-anchor="middle" font-family="Arial, sans-serif" font-size="10" font-weight="bold" fill="white">UNI</text>
      <text x="348" y="20" text-anchor="middle" font-family="Arial, sans-serif" font-size="10" font-weight="bold" fill="white">-</text>
    </g>
    
    <!-- Fila de posiciones -->
    <g transform="translate(0, 90)">
      <rect x="8" y="0" width="22" height="25" rx="2" fill="#e9ecef"/>
      <rect x="32" y="0" width="22" height="25" rx="2" fill="#e9ecef"/>
      <rect x="56" y="0" width="22" height="25" rx="2" fill="#e9ecef"/>
      <rect x="86" y="0" width="22" height="25" rx="2" fill="#e9ecef"/>
      <rect x="110" y="0" width="22" height="25" rx="2" fill="#e9ecef"/>
      <rect x="134" y="0" width="22" height="25" rx="2" fill="#e9ecef"/>
      <rect x="164" y="0" width="22" height="25" rx="2" fill="#e9ecef"/>
      <rect x="188" y="0" width="22" height="25" rx="2" fill="#e9ecef"/>
      <rect x="212" y="0" width="22" height="25" rx="2" fill="#e9ecef"/>
      <rect x="242" y="0" width="22" height="25" rx="2" fill="#e9ecef"/>
      <rect x="266" y="0" width="22" height="25" rx="2" fill="#e9ecef"/>
      <rect x="290" y="0" width="22" height="25" rx="2" fill="#e9ecef"/>
      
      <text x="19" y="16" text-anchor="middle" font-family="Arial, sans-serif" font-size="8" font-weight="bold" fill="#495057">C</text>
      <text x="43" y="16" text-anchor="middle" font-family="Arial, sans-serif" font-size="8" font-weight="bold" fill="#495057">D</text>
      <text x="67" y="16" text-anchor="middle" font-family="Arial, sans-serif" font-size="8" font-weight="bold" fill="#495057">U</text>
      <text x="97" y="16" text-anchor="middle" font-family="Arial, sans-serif" font-size="8" font-weight="bold" fill="#495057">C</text>
      <text x="121" y="16" text-anchor="middle" font-family="Arial, sans-serif" font-size="8" font-weight="bold" fill="#495057">D</text>
      <text x="145" y="16" text-anchor="middle" font-family="Arial, sans-serif" font-size="8" font-weight="bold" fill="#495057">U</text>
      <text x="175" y="16" text-anchor="middle" font-family="Arial, sans-serif" font-size="8" font-weight="bold" fill="#495057">C</text>
      <text x="199" y="16" text-anchor="middle" font-family="Arial, sans-serif" font-size="8" font-weight="bold" fill="#495057">D</text>
      <text x="223" y="16" text-anchor="middle" font-family="Arial, sans-serif" font-size="8" font-weight="bold" fill="#495057">U</text>
      <text x="253" y="16" text-anchor="middle" font-family="Arial, sans-serif" font-size="8" font-weight="bold" fill="#495057">C</text>
      <text x="277" y="16" text-anchor="middle" font-family="Arial, sans-serif" font-size="8" font-weight="bold" fill="#495057">D</text>
      <text x="301" y="16" text-anchor="middle" font-family="Arial, sans-serif" font-size="8" font-weight="bold" fill="#495057">U</text>
    </g>
    
    <!-- Fila de valores con números de ejemplo -->
    <g transform="translate(0, 125)">
      <rect x="8" y="0" width="22" height="40" rx="4" fill="url(#cellGradient)" stroke="#ddd" stroke-width="2"/>
      <rect x="32" y="0" width="22" height="40" rx="4" fill="url(#cellGradient)" stroke="#ddd" stroke-width="2"/>
      <rect x="56" y="0" width="22" height="40" rx="4" fill="url(#cellGradient)" stroke="#ddd" stroke-width="2"/>
      <rect x="86" y="0" width="22" height="40" rx="4" fill="url(#cellGradient)" stroke="#ddd" stroke-width="2"/>
      <rect x="110" y="0" width="22" height="40" rx="4" fill="url(#cellGradient)" stroke="#ddd" stroke-width="2"/>
      <rect x="134" y="0" width="22" height="40" rx="4" fill="url(#cellGradient)" stroke="#ddd" stroke-width="2"/>
      <rect x="164" y="0" width="22" height="40" rx="4" fill="url(#cellGradient)" stroke="#ddd" stroke-width="2"/>
      <rect x="188" y="0" width="22" height="40" rx="4" fill="url(#cellGradient)" stroke="#ddd" stroke-width="2"/>
      <rect x="212" y="0" width="22" height="40" rx="4" fill="url(#cellGradient)" stroke="#ddd" stroke-width="2"/>
      <rect x="242" y="0" width="22" height="40" rx="4" fill="url(#cellGradient)" stroke="#ddd" stroke-width="2"/>
      <rect x="266" y="0" width="22" height="40" rx="4" fill="url(#cellGradient)" stroke="#ddd" stroke-width="2"/>
      <rect x="290" y="0" width="22" height="40" rx="4" fill="url(#cellGradient)" stroke="#ddd" stroke-width="2"/>
      
      <!-- Números de ejemplo: 123,456,789 -->
      <text x="175" y="28" text-anchor="middle" font-family="Arial, sans-serif" font-size="24" font-weight="bold" fill="#2d3436">1</text>
      <text x="199" y="28" text-anchor="middle" font-family="Arial, sans-serif" font-size="24" font-weight="bold" fill="#2d3436">2</text>
      <text x="223" y="28" text-anchor="middle" font-family="Arial, sans-serif" font-size="24" font-weight="bold" fill="#2d3436">3</text>
      <text x="253" y="28" text-anchor="middle" font-family="Arial, sans-serif" font-size="24" font-weight="bold" fill="#2d3436">4</text>
      <text x="277" y="28" text-anchor="middle" font-family="Arial, sans-serif" font-size="24" font-weight="bold" fill="#2d3436">5</text>
      <text x="301" y="28" text-anchor="middle" font-family="Arial, sans-serif" font-size="24" font-weight="bold" fill="#2d3436">6</text>
    </g>
    
    <!-- Fila de lectura -->
    <g transform="translate(0, 175)">
      <rect x="8" y="0" width="368" height="35" rx="8" fill="url(#numberGradient512)"/>
      <text x="192" y="24" text-anchor="middle" font-family="Arial, sans-serif" font-size="14" font-weight="bold" fill="white">Ciento veintitrés mil cuatrocientos cincuenta y seis</text>
    </g>
  </g>
  
  <!-- Elementos decorativos -->
  <g transform="translate(80, 400)">
    <!-- Botones simulados -->
    <rect x="0" y="0" width="80" height="30" rx="15" fill="#ff7675" opacity="0.8"/>
    <text x="40" y="20" text-anchor="middle" font-family="Arial, sans-serif" font-size="12" font-weight="bold" fill="white">Limpiar</text>
    
    <rect x="90" y="0" width="80" height="30" rx="15" fill="#74b9ff" opacity="0.8"/>
    <text x="130" y="20" text-anchor="middle" font-family="Arial, sans-serif" font-size="12" font-weight="bold" fill="white">Aleatorio</text>
    
    <rect x="180" y="0" width="80" height="30" rx="15" fill="#55a3ff" opacity="0.8"/>
    <text x="220" y="20" text-anchor="middle" font-family="Arial, sans-serif" font-size="12" font-weight="bold" fill="white">Ayuda</text>
  </g>
  
  <!-- Efectos de brillo -->
  <ellipse cx="150" cy="150" rx="80" ry="50" fill="white" opacity="0.15" transform="rotate(-30 150 150)"/>
  <ellipse cx="350" cy="200" rx="60" ry="40" fill="white" opacity="0.1" transform="rotate(45 350 200)"/>
  
  <!-- Título en la parte inferior -->
  <text x="256" y="470" text-anchor="middle" font-family="Arial, sans-serif" font-size="18" font-weight="bold" fill="white" opacity="0.9">Tabla Posicional</text>
  <text x="256" y="490" text-anchor="middle" font-family="Arial, sans-serif" font-size="14" font-weight="normal" fill="white" opacity="0.7">Interactiva</text>
</svg>