<svg width="192" height="192" viewBox="0 0 192 192" xmlns="http://www.w3.org/2000/svg">
  <defs>
    <linearGradient id="bgGradient" x1="0%" y1="0%" x2="100%" y2="100%">
      <stop offset="0%" style="stop-color:#667eea;stop-opacity:1" />
      <stop offset="100%" style="stop-color:#764ba2;stop-opacity:1" />
    </linearGradient>
    <linearGradient id="tableGradient" x1="0%" y1="0%" x2="100%" y2="100%">
      <stop offset="0%" style="stop-color:#ff6b6b;stop-opacity:1" />
      <stop offset="100%" style="stop-color:#feca57;stop-opacity:1" />
    </linearGradient>
    <linearGradient id="numberGradient" x1="0%" y1="0%" x2="100%" y2="100%">
      <stop offset="0%" style="stop-color:#74b9ff;stop-opacity:1" />
      <stop offset="100%" style="stop-color:#0984e3;stop-opacity:1" />
    </linearGradient>
  </defs>
  
  <!-- Fondo del icono -->
  <rect width="192" height="192" rx="24" ry="24" fill="url(#bgGradient)"/>
  
  <!-- Tabla posicional simplificada -->
  <g transform="translate(24, 40)">
    <!-- Fila de encabezados -->
    <rect x="0" y="0" width="144" height="20" rx="4" fill="url(#tableGradient)" opacity="0.9"/>
    
    <!-- Celdas de la tabla -->
    <g transform="translate(0, 25)">
      <!-- Fila 1 -->
      <rect x="0" y="0" width="24" height="24" rx="2" fill="white" opacity="0.9"/>
      <rect x="30" y="0" width="24" height="24" rx="2" fill="white" opacity="0.9"/>
      <rect x="60" y="0" width="24" height="24" rx="2" fill="white" opacity="0.9"/>
      <rect x="90" y="0" width="24" height="24" rx="2" fill="white" opacity="0.9"/>
      <rect x="120" y="0" width="24" height="24" rx="2" fill="white" opacity="0.9"/>
      
      <!-- Números en las celdas -->
      <text x="12" y="16" text-anchor="middle" font-family="Arial, sans-serif" font-size="16" font-weight="bold" fill="url(#numberGradient)">1</text>
      <text x="42" y="16" text-anchor="middle" font-family="Arial, sans-serif" font-size="16" font-weight="bold" fill="url(#numberGradient)">2</text>
      <text x="72" y="16" text-anchor="middle" font-family="Arial, sans-serif" font-size="16" font-weight="bold" fill="url(#numberGradient)">3</text>
      <text x="102" y="16" text-anchor="middle" font-family="Arial, sans-serif" font-size="16" font-weight="bold" fill="url(#numberGradient)">4</text>
      <text x="132" y="16" text-anchor="middle" font-family="Arial, sans-serif" font-size="16" font-weight="bold" fill="url(#numberGradient)">5</text>
    </g>
    
    <!-- Fila 2 -->
    <g transform="translate(0, 55)">
      <rect x="0" y="0" width="24" height="24" rx="2" fill="white" opacity="0.7"/>
      <rect x="30" y="0" width="24" height="24" rx="2" fill="white" opacity="0.7"/>
      <rect x="60" y="0" width="24" height="24" rx="2" fill="white" opacity="0.7"/>
      <rect x="90" y="0" width="24" height="24" rx="2" fill="white" opacity="0.7"/>
      <rect x="120" y="0" width="24" height="24" rx="2" fill="white" opacity="0.7"/>
    </g>
    
    <!-- Fila 3 -->
    <g transform="translate(0, 85)">
      <rect x="0" y="0" width="24" height="24" rx="2" fill="white" opacity="0.5"/>
      <rect x="30" y="0" width="24" height="24" rx="2" fill="white" opacity="0.5"/>
      <rect x="60" y="0" width="24" height="24" rx="2" fill="white" opacity="0.5"/>
      <rect x="90" y="0" width="24" height="24" rx="2" fill="white" opacity="0.5"/>
      <rect x="120" y="0" width="24" height="24" rx="2" fill="white" opacity="0.5"/>
    </g>
  </g>
  
  <!-- Título del icono -->
  <text x="96" y="170" text-anchor="middle" font-family="Arial, sans-serif" font-size="12" font-weight="bold" fill="white" opacity="0.9">Tabla</text>
  <text x="96" y="184" text-anchor="middle" font-family="Arial, sans-serif" font-size="12" font-weight="bold" fill="white" opacity="0.9">Posicional</text>
  
  <!-- Efecto de brillo -->
  <ellipse cx="60" cy="60" rx="30" ry="20" fill="white" opacity="0.2" transform="rotate(-30 60 60)"/>
</svg>